<?xml version="1.0" encoding="UTF-8"?>
<!DOCTYPE svg PUBLIC "-//W3C//DTD SVG 1.1//EN" "http://www.w3.org/Graphics/SVG/1.1/DTD/svg11.dtd">
<svg xmlns="http://www.w3.org/2000/svg" version="1.1" width="229px" height="227px" style="shape-rendering:geometricPrecision; text-rendering:geometricPrecision; image-rendering:optimizeQuality; fill-rule:evenodd; clip-rule:evenodd" xmlns:xlink="http://www.w3.org/1999/xlink">
<g><path style="opacity:1" fill="#0B1D3A" d="M -0.5,-0.5 C 75.8333,-0.5 152.167,-0.5 228.5,-0.5C 228.5,75.1667 228.5,150.833 228.5,226.5C 152.167,226.5 75.8333,226.5 -0.5,226.5C -0.5,150.833 -0.5,75.1667 -0.5,-0.5 Z"/></g>
<g><path style="opacity:1" fill="#CAA24A" d="M 106.5,9.5 C 125.741,8.57169 144.407,11.405 162.5,18C 172.866,20.3979 181.866,18.0645 189.5,11C 193.486,10.5012 197.486,10.3345 201.5,10.5C 201.5,31.8333 201.5,53.1667 201.5,74.5C 199.167,74.5 196.833,74.5 194.5,74.5C 194.5,70.1667 194.5,65.8333 194.5,61.5C 191.428,61.8174 188.428,61.4841 185.5,60.5C 175.294,41.1249 159.961,27.6249 139.5,20C 109.462,13.2721 86.629,23.1055 71,49.5C 57.6226,76.7749 53.6226,105.442 59,135.5C 62.8372,162.378 75.6706,183.545 97.5,199C 119.106,209.63 141.106,210.297 163.5,201C 179.095,193.075 191.929,181.909 202,167.5C 204.748,169.458 207.582,171.291 210.5,173C 182.092,210.702 144.425,225.702 97.5,218C 49.3022,206.137 21.8022,175.637 15,126.5C 11.8752,84.1405 27.3752,50.6405 61.5,26C 75.4792,17.3991 90.4792,11.8991 106.5,9.5 Z"/></g>
<g><path style="opacity:1" fill="#0B1D3A" d="M 102.5,212.5 C 102.5,213.167 102.167,213.5 101.5,213.5C 54.6788,203.511 27.5121,174.844 20,127.5C 15.7461,84.8521 31.2461,51.6855 66.5,28C 73.0421,24.3893 79.7088,21.3893 86.5,19C 36.6258,49.9289 19.4592,93.7623 35,150.5C 48.0909,181.425 70.5909,202.091 102.5,212.5 Z"/></g>
<g><path style="opacity:1" fill="#0B1D3A" d="M 181.5,22.5 C 183.164,23.9488 183.998,25.9488 184,28.5C 184.667,34.5 184.667,40.5 184,46.5C 178.54,38.7059 172.04,31.8726 164.5,26C 170.569,26.1148 176.235,24.9482 181.5,22.5 Z"/></g>
<g><path style="opacity:1" fill="#CAA24A" d="M 185.5,157.5 C 180.04,158.829 174.207,159.496 168,159.5C 162.167,159.167 156.333,158.833 150.5,158.5C 151.949,157.828 153.282,157.161 154.5,156.5C 159.119,155.873 161.119,153.206 160.5,148.5C 161.828,129.996 161.828,111.329 160.5,92.5C 159.893,92.6236 159.56,92.9569 159.5,93.5C 150.397,115.835 141.73,138.168 133.5,160.5C 131.011,160.759 129.344,159.759 128.5,157.5C 128.263,156.209 128.596,155.209 129.5,154.5C 129.369,155.376 129.702,156.043 130.5,156.5C 131.652,153.894 131.818,151.227 131,148.5C 122.919,128.678 114.586,109.011 106,89.5C 103.838,85.6316 100.672,84.1316 96.5,85C 100.143,86.8048 102.476,89.6381 103.5,93.5C 102.833,94.1667 102.167,94.8333 101.5,95.5C 101.17,111.675 101.504,127.675 102.5,143.5C 103.08,151.077 107.08,155.41 114.5,156.5C 114.5,157.833 114.5,159.167 114.5,160.5C 105.167,160.5 95.8333,160.5 86.5,160.5C 86.5,159.167 86.5,157.833 86.5,156.5C 91.6321,156.523 95.1321,154.19 97,149.5C 98.1197,138.722 98.6197,127.889 98.5,117C 98.3333,107.5 98.1667,98 98,88.5C 94.7084,85.6803 90.8751,84.3469 86.5,84.5C 86.5,83.5 86.5,82.5 86.5,81.5C 95.4178,81.1828 104.251,81.5161 113,82.5C 120.794,101.536 128.794,120.536 137,139.5C 145.136,120.251 152.97,100.918 160.5,81.5C 169.167,81.5 177.833,81.5 186.5,81.5C 186.5,82.5 186.5,83.5 186.5,84.5C 181.777,83.5531 177.944,84.8864 175,88.5C 174.333,109.5 174.333,130.5 175,151.5C 177.079,155.957 180.579,157.957 185.5,157.5 Z"/></g>
<g><path style="opacity:1" fill="#0B1D3A" d="M 164.5,84.5 C 165.832,95.4797 166.499,106.813 166.5,118.5C 166.333,129.833 166.167,141.167 166,152.5C 165.127,156.06 162.96,157.56 159.5,157C 160.701,156.097 161.535,154.931 162,153.5C 162.333,131.167 162.667,108.833 163,86.5C 163.717,85.9558 164.217,85.2891 164.5,84.5 Z"/></g>
<g><path style="opacity:1" fill="#0B1D3A" d="M 129.5,154.5 C 121.204,133.926 112.537,113.593 103.5,93.5C 102.476,89.6381 100.143,86.8048 96.5,85C 100.672,84.1316 103.838,85.6316 106,89.5C 114.586,109.011 122.919,128.678 131,148.5C 131.818,151.227 131.652,153.894 130.5,156.5C 129.702,156.043 129.369,155.376 129.5,154.5 Z"/></g>
<g><path style="opacity:1" fill="#CAA24A" d="M 159.5,93.5 C 159.56,92.9569 159.893,92.6236 160.5,92.5C 161.828,111.329 161.828,129.996 160.5,148.5C 160.83,129.992 160.497,111.659 159.5,93.5 Z"/></g>
<g><path style="opacity:1" fill="#CAA24A" d="M 101.5,95.5 C 102.492,95.3284 103.158,95.6618 103.5,96.5C 102.504,111.991 102.17,127.658 102.5,143.5C 101.504,127.675 101.17,111.675 101.5,95.5 Z"/></g>
<g><path style="opacity:1" fill="#CAA24A" d="M 103.5,93.5 C 112.537,113.593 121.204,133.926 129.5,154.5C 128.596,155.209 128.263,156.209 128.5,157.5C 120.029,137.47 111.696,117.137 103.5,96.5C 103.158,95.6618 102.492,95.3284 101.5,95.5C 102.167,94.8333 102.833,94.1667 103.5,93.5 Z"/></g>
<g><path style="opacity:1" fill="#0B1D3A" d="M 98.5,151.5 C 100.379,152.897 102.046,154.563 103.5,156.5C 100.216,157.657 96.8823,157.824 93.5,157C 95.6857,155.588 97.3524,153.755 98.5,151.5 Z"/></g>
<g><path style="opacity:1" fill="#CAA24A" d="M 154.5,156.5 C 153.282,157.161 151.949,157.828 150.5,158.5C 156.333,158.833 162.167,159.167 168,159.5C 174.207,159.496 180.04,158.829 185.5,157.5C 186.404,158.209 186.737,159.209 186.5,160.5C 174.167,160.5 161.833,160.5 149.5,160.5C 149.5,159.167 149.5,157.833 149.5,156.5C 151.167,156.5 152.833,156.5 154.5,156.5 Z"/></g>
<g><path style="opacity:1" fill="#CAA24A" d="M 102.5,212.5 C 104.179,212.892 105.846,213.392 107.5,214C 105.288,214.789 103.288,214.622 101.5,213.5C 102.167,213.5 102.5,213.167 102.5,212.5 Z"/></g>
</svg>
